<svg width="31" height="23" viewBox="0 0 31 23" fill="none" xmlns="http://www.w3.org/2000/svg">
<path d="M30.8613 4.88903C30.8605 4.8852 30.859 4.88137 30.8583 4.8783C30.8264 4.7863 30.7878 4.69813 30.7393 4.61533C30.7279 4.59463 30.715 4.57547 30.7029 4.5563C30.6983 4.54863 30.6945 4.54097 30.6885 4.5333C30.6786 4.51873 30.6695 4.50493 30.6597 4.4919C30.6498 4.47963 30.6423 4.4666 30.6332 4.45433C30.6233 4.44207 30.6127 4.42903 30.6028 4.41677C30.593 4.4045 30.5839 4.39147 30.5733 4.37997C30.5649 4.37 30.5551 4.3608 30.5467 4.35083C30.5346 4.33703 30.5217 4.32247 30.5073 4.30943L30.496 4.29793C30.4088 4.21053 30.3095 4.13463 30.2004 4.07023C30.2004 4.06947 30.1996 4.06947 30.1996 4.06947L23.5714 0.199333C23.3425 0.0659333 23.0893 0 22.8346 0C22.58 0 22.3268 0.0667 22.1002 0.198567L16.2056 3.64013L15.4697 4.06947L14.733 3.64013L8.83765 0.198567C8.61103 0.0659333 8.35636 0 8.1032 0C7.85005 0 7.59538 0.0659333 7.36648 0.199333L0.73824 4.0687C0.73824 4.0687 0.737482 4.0687 0.737482 4.06947C0.482812 4.21743 0.282714 4.43747 0.155379 4.69353C0.154621 4.69583 0.153105 4.69737 0.152347 4.69967C0.145526 4.71423 0.14022 4.7288 0.133399 4.7426C0.126577 4.75793 0.118998 4.7725 0.112934 4.78783C0.109902 4.79473 0.108386 4.80163 0.105355 4.80853C0.0955012 4.83153 0.0871638 4.8553 0.0795844 4.8783C0.0720049 4.90053 0.0651834 4.922 0.0591198 4.94423C0.056088 4.9542 0.0530562 4.96263 0.0507824 4.97107C0.0469927 4.98487 0.0447188 4.99943 0.0409291 5.01247C0.0371394 5.0301 0.0325917 5.0485 0.028802 5.06537C0.028802 5.06843 0.028044 5.0715 0.028044 5.0738C0.0098533 5.16657 0 5.2624 0 5.359V13.1062C0 13.6382 0.28044 14.1312 0.736724 14.3972L6.629 17.838L15.4667 22.9992L22.8339 18.6975L24.3066 17.838L30.1996 14.3972C30.6559 14.1312 30.9363 13.6382 30.9363 13.1062V5.359C30.9363 5.19647 30.9098 5.03777 30.8605 4.88827L30.8613 4.88903ZM15.4682 5.79217L21.3589 9.23067L16.9416 11.812L15.4682 10.9526L13.9955 11.812L9.57665 9.23067L15.4674 5.79217H15.4682ZM14.733 20.8464L8.83993 17.4072V10.5233L9.94501 11.1688V12.0282L10.6817 12.4576L11.4177 12.0282L12.5228 12.6738V17.835L14.733 19.1253V20.8472V20.8464ZM13.9962 16.9755V13.5332L15.4689 12.6738L16.9424 13.5332V16.9755L15.4689 17.835L13.9962 16.9755ZM16.2049 19.1253L18.4151 17.835V12.6738L19.5201 12.0282L20.2561 12.4576L20.9928 12.0282V11.1688L22.0979 10.5233V17.4072L16.2049 20.8464V19.1245V19.1253ZM1.47421 13.1069V5.35977L8.1032 1.4904L13.9955 4.92967H13.9962L10.352 7.05717L7.36648 8.80057V16.5477L1.47421 13.1069ZM29.4636 13.1069L23.5714 16.5477V8.80057L20.5858 7.05717L16.9416 4.9312H16.9424L22.8346 1.4904L29.4636 5.35977V13.1069Z" fill="black"/>
</svg>
