<svg width="24" height="24" viewBox="0 0 24 24" fill="none" xmlns="http://www.w3.org/2000/svg">
<path d="M12 24C18.6274 24 24 18.6274 24 12C24 5.37258 18.6274 0 12 0C5.37258 0 0 5.37258 0 12C0 18.6274 5.37258 24 12 24Z" fill="#007AB9"/>
<path d="M19.1707 12.9656V17.9129H16.3024V13.2971C16.3024 12.1382 15.8883 11.3467 14.8497 11.3467C14.0572 11.3467 13.5864 11.8796 13.3785 12.3955C13.3029 12.5799 13.2835 12.836 13.2835 13.0946V17.9127H10.4149C10.4149 17.9127 10.4534 10.0951 10.4149 9.28588H13.2837V10.5084C13.2779 10.518 13.2698 10.5274 13.2647 10.5366H13.2837V10.5084C13.6649 9.92184 14.3447 9.08331 15.8688 9.08331C17.7559 9.08331 19.1707 10.3163 19.1707 12.9656ZM7.41417 5.12744C6.43296 5.12744 5.79102 5.77153 5.79102 6.61776C5.79102 7.44603 6.41435 8.10872 7.37653 8.10872H7.39514C8.3956 8.10872 9.01765 7.44603 9.01765 6.61776C8.99862 5.77153 8.3956 5.12744 7.41417 5.12744ZM5.9615 17.9129H8.82898V9.28588H5.9615V17.9129Z" fill="#F1F2F2"/>
</svg>
