<svg width="24" height="24" viewBox="0 0 24 24" fill="none" xmlns="http://www.w3.org/2000/svg">
<path d="M12 24C18.6274 24 24 18.6274 24 12C24 5.37258 18.6274 0 12 0C5.37258 0 0 5.37258 0 12C0 18.6274 5.37258 24 12 24Z" fill="#039BE5"/>
<path d="M5.49029 11.7402L17.0603 7.27921C17.5973 7.08521 18.0663 7.41021 17.8923 8.22221L17.8933 8.22121L15.9233 17.5022C15.7773 18.1602 15.3863 18.3202 14.8393 18.0102L11.8393 15.7992L10.3923 17.1932C10.2323 17.3532 10.0973 17.4882 9.78729 17.4882L10.0003 14.4352L15.5603 9.41221C15.8023 9.19921 15.5063 9.07921 15.1873 9.29121L8.31629 13.6172L5.35429 12.6932C4.71129 12.4892 4.69729 12.0502 5.49029 11.7402Z" fill="white"/>
</svg>
